<svg width="64" height="64" viewBox="0 0 64 64" fill="none" xmlns="http://www.w3.org/2000/svg">
<path fill-rule="evenodd" clip-rule="evenodd" d="M32 60C39.4261 60 46.548 57.05 51.799 51.799C57.05 46.548 60 39.4261 60 32C60 24.5739 57.05 17.452 51.799 12.201C46.548 6.94999 39.4261 4 32 4C24.5739 4 17.452 6.94999 12.201 12.201C6.94999 17.452 4 24.5739 4 32C4 39.4261 6.94999 46.548 12.201 51.799C17.452 57.05 24.5739 60 32 60V60ZM32 64C40.4869 64 48.6263 60.6286 54.6274 54.6274C60.6286 48.6263 64 40.4869 64 32C64 23.5131 60.6286 15.3737 54.6274 9.37258C48.6263 3.37142 40.4869 0 32 0C23.5131 0 15.3737 3.37142 9.37258 9.37258C3.37142 15.3737 0 23.5131 0 32C0 40.4869 3.37142 48.6263 9.37258 54.6274C15.3737 60.6286 23.5131 64 32 64V64Z" fill="#FF4E4E"/>
<path fill-rule="evenodd" clip-rule="evenodd" d="M47.4166 16.5867C47.6028 16.7725 47.7506 16.9932 47.8514 17.2362C47.9522 17.4792 48.0041 17.7397 48.0041 18.0027C48.0041 18.2658 47.9522 18.5263 47.8514 18.7693C47.7506 19.0122 47.6028 19.2329 47.4166 19.4187L19.4166 47.4187C19.041 47.7943 18.5317 48.0052 18.0006 48.0052C17.4695 48.0052 16.9601 47.7943 16.5846 47.4187C16.209 47.0432 15.998 46.5338 15.998 46.0027C15.998 45.4716 16.209 44.9623 16.5846 44.5867L44.5846 16.5867C44.7704 16.4005 44.9911 16.2527 45.234 16.1519C45.477 16.051 45.7375 15.9991 46.0006 15.9991C46.2636 15.9991 46.5241 16.051 46.7671 16.1519C47.0101 16.2527 47.2308 16.4005 47.4166 16.5867V16.5867Z" fill="#FF4E4E"/>
<path fill-rule="evenodd" clip-rule="evenodd" d="M16.5837 16.5867C16.3974 16.7725 16.2496 16.9932 16.1488 17.2362C16.048 17.4792 15.9961 17.7397 15.9961 18.0027C15.9961 18.2658 16.048 18.5263 16.1488 18.7693C16.2496 19.0122 16.3974 19.2329 16.5837 19.4187L44.5837 47.4187C44.9592 47.7943 45.4686 48.0052 45.9997 48.0052C46.5308 48.0052 47.0401 47.7943 47.4157 47.4187C47.7912 47.0432 48.0022 46.5338 48.0022 46.0027C48.0022 45.4716 47.7912 44.9623 47.4157 44.5867L19.4157 16.5867C19.2299 16.4005 19.0092 16.2527 18.7662 16.1519C18.5232 16.051 18.2627 15.9991 17.9997 15.9991C17.7366 15.9991 17.4761 16.051 17.2331 16.1519C16.9902 16.2527 16.7695 16.4005 16.5837 16.5867V16.5867Z" fill="#FF4E4E"/>
</svg>
