<svg width="64" height="64" viewBox="0 0 64 64" fill="none" xmlns="http://www.w3.org/2000/svg">
<path fill-rule="evenodd" clip-rule="evenodd" d="M32 60C39.4261 60 46.548 57.05 51.799 51.799C57.05 46.548 60 39.4261 60 32C60 24.5739 57.05 17.452 51.799 12.201C46.548 6.94999 39.4261 4 32 4C24.5739 4 17.452 6.94999 12.201 12.201C6.94999 17.452 4 24.5739 4 32C4 39.4261 6.94999 46.548 12.201 51.799C17.452 57.05 24.5739 60 32 60V60ZM32 64C40.4869 64 48.6263 60.6286 54.6274 54.6274C60.6286 48.6263 64 40.4869 64 32C64 23.5131 60.6286 15.3737 54.6274 9.37258C48.6263 3.37142 40.4869 0 32 0C23.5131 0 15.3737 3.37142 9.37258 9.37258C3.37142 15.3737 0 23.5131 0 32C0 40.4869 3.37142 48.6263 9.37258 54.6274C15.3737 60.6286 23.5131 64 32 64V64Z" fill="#FFA800"/>
<path fill-rule="evenodd" clip-rule="evenodd" d="M43.8797 19.878C44.4395 19.3231 45.1952 19.0108 45.9834 19.0086C46.7716 19.0064 47.529 19.3146 48.0919 19.8664C48.6547 20.4182 48.9778 21.1694 48.9912 21.9575C49.0047 22.7456 48.7074 23.5073 48.1637 24.078L32.1957 44.038C31.9212 44.3336 31.59 44.5708 31.2218 44.7355C30.8536 44.9001 30.4559 44.9888 30.0527 44.9963C29.6494 45.0038 29.2487 44.9298 28.8747 44.7789C28.5006 44.628 28.1608 44.4032 27.8757 44.118L17.2957 33.534C17.0009 33.2594 16.7645 32.9282 16.6005 32.5602C16.4366 32.1922 16.3484 31.7949 16.3413 31.3921C16.3342 30.9893 16.4083 30.5892 16.5592 30.2156C16.71 29.8421 16.9346 29.5027 17.2195 29.2179C17.5044 28.933 17.8437 28.7084 18.2173 28.5575C18.5908 28.4066 18.9909 28.3325 19.3937 28.3396C19.7966 28.3467 20.1938 28.4349 20.5618 28.5989C20.9298 28.7629 21.261 28.9993 21.5357 29.294L29.9117 37.666L43.8037 19.966C43.8284 19.935 43.8552 19.9056 43.8837 19.878H43.8797Z" fill="#FFA800"/>
</svg>
