<svg width="46" height="45" viewBox="0 0 46 45" fill="none" xmlns="http://www.w3.org/2000/svg">
<path d="M43.9934 7.12598L37.8697 1.14173C37.1222 0.410574 36.1217 0 35.0637 0C34.0056 0 33.0051 0.40495 32.2576 1.14173L25.6624 7.58155C24.9149 8.31271 24.4951 9.29696 24.4951 10.3318C24.4951 11.3723 24.9091 12.3453 25.6624 13.0821L30.8144 18.1271C29.6407 20.8019 27.9543 23.2323 25.8464 25.2868C23.7361 27.3622 21.2693 28.9989 18.5323 30.1575L13.3803 25.1125C12.6328 24.3813 11.6323 23.9708 10.5743 23.9708C10.0524 23.9689 9.53545 24.0689 9.05362 24.2649C8.57179 24.461 8.13481 24.7491 7.76828 25.1125L1.16726 31.5523C0.419752 32.2835 0 33.2677 0 34.3026C0 35.3431 0.414002 36.3161 1.16726 37.0529L7.28528 43.0371C8.56179 44.2857 10.3213 45 12.1268 45C12.5006 45 12.8628 44.9719 13.2308 44.91C20.8438 43.6839 28.3994 39.7188 34.5002 33.757C40.5952 27.784 44.6432 20.3937 45.9082 12.9415C46.2705 10.8268 45.5459 8.65017 43.9934 7.12598V7.12598ZM41.8314 12.2722C40.7102 18.9033 37.0647 25.5174 31.5734 30.8886C26.0821 36.2598 19.3258 39.8256 12.5466 40.9224C11.6956 41.063 10.8215 40.7818 10.2005 40.18L4.19177 34.3026L10.5628 28.0652L17.4513 34.8144L17.5031 34.865L18.7451 34.4151C22.5109 33.0608 25.9307 30.9217 28.7673 28.1461C31.604 25.3705 33.7896 22.0248 35.1729 18.3408L35.6329 17.126L28.6869 10.3375L35.0579 4.10011L41.0667 9.9775C41.6877 10.5849 41.9752 11.4398 41.8314 12.2722Z" fill="#181818"/>
</svg>
