<svg width="48" height="36" viewBox="0 0 48 36" fill="none" xmlns="http://www.w3.org/2000/svg">
<path d="M45 0H3C2.20435 0 1.44129 0.31607 0.87868 0.878679C0.31607 1.44129 0 2.20435 0 3V33C0 33.7956 0.31607 34.5587 0.87868 35.1213C1.44129 35.6839 2.20435 36 3 36H45C45.7956 36 46.5587 35.6839 47.1213 35.1213C47.6839 34.5587 48 33.7956 48 33V3C48 2.20435 47.6839 1.44129 47.1213 0.878679C46.5587 0.31607 45.7956 0 45 0V0ZM42.69 33H5.49L15.99 22.14L13.83 20.055L3 31.26V5.28L21.645 23.835C22.2071 24.3937 22.9674 24.7074 23.76 24.7074C24.5526 24.7074 25.3129 24.3937 25.875 23.835L45 4.815V31.065L33.96 20.025L31.845 22.14L42.69 33ZM4.965 3H42.57L23.76 21.705L4.965 3Z" fill="#181818"/>
</svg>
