<svg width="43" height="42" viewBox="0 0 43 42" fill="none" xmlns="http://www.w3.org/2000/svg">
<path fill-rule="evenodd" clip-rule="evenodd" d="M37.625 2.6875H5.375C4.66223 2.6875 3.97865 2.97065 3.47465 3.47465C2.97065 3.97865 2.6875 4.66223 2.6875 5.375V26.875C2.6875 27.5878 2.97065 28.2713 3.47465 28.7753C3.97865 29.2794 4.66223 29.5625 5.375 29.5625H12.0938C12.9282 29.5625 13.7512 29.7568 14.4975 30.13C15.2439 30.5031 15.8931 31.0449 16.3937 31.7125L21.5 38.5199L26.6062 31.7125C27.1069 31.0449 27.7561 30.5031 28.5025 30.13C29.2488 29.7568 30.0718 29.5625 30.9062 29.5625H37.625C38.3378 29.5625 39.0213 29.2794 39.5253 28.7753C40.0294 28.2713 40.3125 27.5878 40.3125 26.875V5.375C40.3125 4.66223 40.0294 3.97865 39.5253 3.47465C39.0213 2.97065 38.3378 2.6875 37.625 2.6875ZM5.375 0C3.94946 0 2.58231 0.566293 1.5743 1.5743C0.566293 2.58231 0 3.94946 0 5.375L0 26.875C0 28.3005 0.566293 29.6677 1.5743 30.6757C2.58231 31.6837 3.94946 32.25 5.375 32.25H12.0938C12.511 32.25 12.9225 32.3471 13.2956 32.5337C13.6688 32.7203 13.9934 32.9912 14.2438 33.325L19.35 40.1324C19.6003 40.4662 19.9249 40.7371 20.2981 40.9237C20.6713 41.1103 21.0828 41.2074 21.5 41.2074C21.9172 41.2074 22.3287 41.1103 22.7019 40.9237C23.0751 40.7371 23.3997 40.4662 23.65 40.1324L28.7562 33.325C29.0066 32.9912 29.3312 32.7203 29.7044 32.5337C30.0775 32.3471 30.489 32.25 30.9062 32.25H37.625C39.0505 32.25 40.4177 31.6837 41.4257 30.6757C42.4337 29.6677 43 28.3005 43 26.875V5.375C43 3.94946 42.4337 2.58231 41.4257 1.5743C40.4177 0.566293 39.0505 0 37.625 0L5.375 0Z" fill="white"/>
<path d="M13.4375 16.125C13.4375 16.8378 13.1544 17.5213 12.6503 18.0253C12.1463 18.5294 11.4628 18.8125 10.75 18.8125C10.0372 18.8125 9.35365 18.5294 8.84965 18.0253C8.34565 17.5213 8.0625 16.8378 8.0625 16.125C8.0625 15.4122 8.34565 14.7287 8.84965 14.2247C9.35365 13.7206 10.0372 13.4375 10.75 13.4375C11.4628 13.4375 12.1463 13.7206 12.6503 14.2247C13.1544 14.7287 13.4375 15.4122 13.4375 16.125V16.125ZM24.1875 16.125C24.1875 16.8378 23.9044 17.5213 23.4003 18.0253C22.8963 18.5294 22.2128 18.8125 21.5 18.8125C20.7872 18.8125 20.1037 18.5294 19.5997 18.0253C19.0956 17.5213 18.8125 16.8378 18.8125 16.125C18.8125 15.4122 19.0956 14.7287 19.5997 14.2247C20.1037 13.7206 20.7872 13.4375 21.5 13.4375C22.2128 13.4375 22.8963 13.7206 23.4003 14.2247C23.9044 14.7287 24.1875 15.4122 24.1875 16.125ZM34.9375 16.125C34.9375 16.8378 34.6544 17.5213 34.1503 18.0253C33.6463 18.5294 32.9628 18.8125 32.25 18.8125C31.5372 18.8125 30.8537 18.5294 30.3497 18.0253C29.8456 17.5213 29.5625 16.8378 29.5625 16.125C29.5625 15.4122 29.8456 14.7287 30.3497 14.2247C30.8537 13.7206 31.5372 13.4375 32.25 13.4375C32.9628 13.4375 33.6463 13.7206 34.1503 14.2247C34.6544 14.7287 34.9375 15.4122 34.9375 16.125Z" fill="white"/>
</svg>
