<svg width="64" height="64" viewBox="0 0 64 64" fill="none" xmlns="http://www.w3.org/2000/svg">
<path d="M32.0003 3.00007C32.6883 3.00007 33.3323 3.13607 33.9363 3.40807C34.5332 3.65223 35.0754 4.01285 35.5315 4.46886C35.9875 4.92488 36.3481 5.46717 36.5923 6.06407C36.8643 6.66407 37.0003 7.31207 37.0003 8.00007C37.0003 8.68807 36.8643 9.33207 36.5923 9.93607C36.3484 10.5332 35.9881 11.0757 35.5323 11.5321C35.0718 11.9909 34.5308 12.3611 33.9363 12.6241C33.3222 12.8763 32.6641 13.0041 32.0003 13.0001C31.3123 13.0001 30.6683 12.8761 30.0643 12.6241C28.8665 12.0916 27.9087 11.1338 27.3763 9.93607C27.124 9.32197 26.9962 8.66392 27.0003 8.00007C27.0003 7.31207 27.1243 6.66807 27.3763 6.06407C27.6443 5.46007 28.0123 4.92807 28.4683 4.46807C28.9283 4.01207 29.4603 3.65607 30.0643 3.40807C30.6731 3.13565 31.3332 2.99654 32.0003 3.00007ZM10.5323 15.0321C10.5267 14.1527 10.7822 13.2914 11.2664 12.5573C11.7506 11.8232 12.4417 11.2492 13.2523 10.9081C13.8075 10.6608 14.4085 10.533 15.0163 10.533C15.624 10.533 16.225 10.6608 16.7803 10.9081C17.3243 11.1361 17.7923 11.4601 18.1883 11.8761C18.6043 12.2721 18.9283 12.7401 19.1563 13.2801C19.4041 13.8358 19.5322 14.4375 19.5322 15.0461C19.5322 15.6546 19.4041 16.2563 19.1563 16.8121C18.7018 17.8819 17.8501 18.7336 16.7803 19.1881C15.6482 19.6498 14.3803 19.6498 13.2483 19.1881C12.7169 18.9655 12.2303 18.6484 11.8123 18.2521C11.4155 17.8328 11.0984 17.3448 10.8763 16.8121C10.6466 16.2469 10.5297 15.6422 10.5323 15.0321V15.0321ZM8.00026 28.0001C8.52595 27.9907 9.04777 28.0916 9.5321 28.2962C10.0164 28.5008 10.4525 28.8046 10.8123 29.1881C11.1957 29.5478 11.4995 29.9839 11.7041 30.4682C11.9087 30.9526 12.0096 31.4744 12.0003 32.0001C12.0051 32.536 11.8989 33.0672 11.6883 33.5601C11.2736 34.5116 10.515 35.2716 9.56426 35.6881C9.07015 35.8992 8.53757 36.0055 8.00026 36.0001C7.46429 36.0049 6.93313 35.8987 6.44026 35.6881C5.96764 35.4835 5.53445 35.1979 5.16026 34.8441C4.80502 34.4702 4.51801 34.037 4.31226 33.5641C4.10108 33.07 3.99484 32.5374 4.00026 32.0001C3.99422 31.4774 4.09386 30.9589 4.2932 30.4756C4.49254 29.9924 4.78746 29.5545 5.16026 29.1881C5.52754 28.8068 5.96898 28.5047 6.4574 28.3004C6.94581 28.096 7.47087 27.9939 8.00026 28.0001V28.0001ZM11.5323 48.9681C11.538 48.2837 11.7416 47.6155 12.1184 47.0442C12.4953 46.4729 13.0294 46.0227 13.6563 45.7481C14.086 45.5639 14.5487 45.4689 15.0163 45.4689C15.4838 45.4689 15.9465 45.5639 16.3763 45.7481C16.8163 45.9361 17.1883 46.1881 17.5003 46.5001C17.9883 46.9959 18.3198 47.6243 18.4535 48.307C18.5872 48.9898 18.5172 49.6968 18.2523 50.3401C17.8778 51.1849 17.1884 51.8503 16.3308 52.1947C15.4732 52.5391 14.5151 52.5353 13.6603 52.1841C12.8388 51.8191 12.1808 51.1639 11.8123 50.3441C11.6256 49.9094 11.5303 49.4411 11.5323 48.9681V48.9681ZM32.0003 53.0001C32.8323 53.0001 33.5403 53.2921 34.1243 53.8761C34.4076 54.1515 34.6316 54.482 34.7822 54.8473C34.9329 55.2127 35.0071 55.605 35.0003 56.0001C35.0071 56.3952 34.9329 56.7875 34.7822 57.1528C34.6316 57.5181 34.4076 57.8487 34.1243 58.1241C33.8489 58.4074 33.5183 58.6314 33.153 58.782C32.7877 58.9327 32.3954 59.0069 32.0003 59.0001C31.6052 59.0069 31.2128 58.9327 30.8475 58.782C30.4822 58.6314 30.1517 58.4074 29.8763 58.1241C29.5929 57.8487 29.3689 57.5181 29.2183 57.1528C29.0676 56.7875 28.9934 56.3952 29.0003 56.0001C29.0003 55.1681 29.2923 54.4601 29.8763 53.8761C30.1517 53.5927 30.4822 53.3688 30.8475 53.2181C31.2128 53.0674 31.6052 52.9932 32.0003 53.0001V53.0001ZM46.4683 48.9681C46.4683 48.2601 46.7083 47.6681 47.1883 47.1881C47.6683 46.7081 48.2603 46.4681 48.9683 46.4681C49.6763 46.4681 50.2723 46.7081 50.7483 47.1881C51.2283 47.6681 51.4683 48.2601 51.4683 48.9681C51.4683 49.6761 51.2283 50.2721 50.7483 50.7481C50.5164 50.9832 50.2388 51.1683 49.9327 51.2922C49.6266 51.416 49.2984 51.4758 48.9683 51.4681C48.6381 51.4758 48.3099 51.416 48.0038 51.2922C47.6977 51.1683 47.4201 50.9832 47.1883 50.7481C46.9532 50.5162 46.768 50.2386 46.6442 49.9325C46.5203 49.6264 46.4605 49.2982 46.4683 48.9681ZM56.0003 30.0001C56.263 29.9972 56.5235 30.0482 56.7657 30.15C57.0078 30.2519 57.2266 30.4023 57.4083 30.5921C57.598 30.7738 57.7485 30.9925 57.8503 31.2347C57.9521 31.4768 58.0032 31.7374 58.0003 32.0001C58.0032 32.2628 57.9521 32.5233 57.8503 32.7655C57.7485 33.0077 57.598 33.2264 57.4083 33.4081C57.2266 33.5978 57.0078 33.7483 56.7657 33.8501C56.5235 33.9519 56.263 34.003 56.0003 34.0001C55.7376 34.003 55.477 33.9519 55.2349 33.8501C54.9927 33.7483 54.774 33.5978 54.5923 33.4081C54.4025 33.2264 54.2521 33.0077 54.1502 32.7655C54.0484 32.5233 53.9974 32.2628 54.0003 32.0001C53.9974 31.7374 54.0484 31.4768 54.1502 31.2347C54.2521 30.9925 54.4025 30.7738 54.5923 30.5921C54.774 30.4023 54.9927 30.2519 55.2349 30.15C55.477 30.0482 55.7376 29.9972 56.0003 30.0001V30.0001ZM48.9683 9.53206C49.7203 9.53206 50.4283 9.67607 51.0923 9.97207C52.4095 10.542 53.4606 11.5916 54.0323 12.9081C54.3243 13.5721 54.4723 14.2801 54.4723 15.0281C54.4723 15.7801 54.3243 16.4881 54.0323 17.1561C53.4606 18.4725 52.4095 19.5222 51.0923 20.0921C50.4239 20.3847 49.7019 20.5346 48.9723 20.5321C48.2203 20.5321 47.5123 20.3841 46.8443 20.0921C45.529 19.5207 44.4797 18.4713 43.9083 17.1561C43.6151 16.4865 43.4652 15.763 43.4683 15.0321C43.4683 14.2801 43.6163 13.5721 43.9083 12.9081C44.4782 11.5908 45.5278 10.5397 46.8443 9.96807C47.5123 9.67607 48.2203 9.52807 48.9683 9.52807V9.53206Z" fill="#FFA800"/>
</svg>
