<svg width="90" height="90" viewBox="0 0 90 90" fill="none" xmlns="http://www.w3.org/2000/svg">
<path d="M81.5625 39.0234H72.0703V29.0391C72.0703 27.4834 70.8135 26.2266 69.2578 26.2266H41.5723L31.2627 16.3652C31.1315 16.2424 30.959 16.1734 30.7793 16.1719H8.4375C6.88184 16.1719 5.625 17.4287 5.625 18.9844V71.0156C5.625 72.5713 6.88184 73.8281 8.4375 73.8281H69.7852C70.9277 73.8281 71.9648 73.1338 72.3955 72.0703L84.1729 42.8906C84.3047 42.5566 84.375 42.1963 84.375 41.8359C84.375 40.2803 83.1182 39.0234 81.5625 39.0234ZM11.9531 22.5H28.5205L39.0322 32.5547H65.7422V39.0234H20.918C19.7754 39.0234 18.7383 39.7178 18.3076 40.7812L11.9531 56.5313V22.5ZM67.79 67.5H13.9746L23.0537 45H76.8779L67.79 67.5Z" fill="white"/>
</svg>
