<svg width="17" height="17" viewBox="0 0 17 17" fill="none" xmlns="http://www.w3.org/2000/svg">
<path d="M11.8238 10.1437H11.0766L10.8117 9.89476C11.7387 8.8435 12.2968 7.47871 12.2968 5.99403C12.2968 2.68348 9.54421 0 6.1484 0C2.75259 0 0 2.68348 0 5.99403C0 9.30458 2.75259 11.9881 6.1484 11.9881C7.67131 11.9881 9.07125 11.444 10.1496 10.5403L10.405 10.7985V11.527L15.1345 16.1286L16.5439 14.7545L11.8238 10.1437V10.1437ZM6.1484 10.1437C3.79309 10.1437 1.89182 8.2902 1.89182 5.99403C1.89182 3.69786 3.79309 1.84432 6.1484 1.84432C8.50371 1.84432 10.405 3.69786 10.405 5.99403C10.405 8.2902 8.50371 10.1437 6.1484 10.1437Z" fill="white"/>
</svg>
