<svg width="80" height="55" viewBox="0 0 80 55" fill="none" xmlns="http://www.w3.org/2000/svg">
<path d="M75.7143 11.1172L64.2857 16.875V5C64.2857 2.24219 61.7232 0 58.5714 0H5.71429C2.5625 0 0 2.24219 0 5V50C0 52.7578 2.5625 55 5.71429 55H58.5714C61.7232 55 64.2857 52.7578 64.2857 50V38.125L75.7143 43.8828C77.6161 44.8438 80 43.6406 80 41.7266V13.2812C80 11.3594 77.6161 10.1562 75.7143 11.1172ZM57.8571 49.375H6.42857V5.625H57.8571V49.375ZM73.5714 36.3281L64.2857 31.6563V23.3516L73.5714 18.6719V36.3281ZM12.8571 15.625H22.8571C23.25 15.625 23.5714 15.3438 23.5714 15V11.25C23.5714 10.9062 23.25 10.625 22.8571 10.625H12.8571C12.4643 10.625 12.1429 10.9062 12.1429 11.25V15C12.1429 15.3438 12.4643 15.625 12.8571 15.625Z" fill="white"/>
</svg>
