<svg width="80" height="67" viewBox="0 0 80 67" fill="none" xmlns="http://www.w3.org/2000/svg">
<path d="M72.5926 10.3077H60L57 1.9511C56.7927 1.37928 56.4129 0.885006 55.9124 0.535794C55.4119 0.186582 54.8152 -0.000536201 54.2037 1.15412e-06H25.7963C24.5463 1.15412e-06 23.4259 0.782281 23.0093 1.9511L20 10.3077H7.40741C3.31481 10.3077 0 13.6025 0 17.6703V59.6374C0 63.7052 3.31481 67 7.40741 67H72.5926C76.6852 67 80 63.7052 80 59.6374V17.6703C80 13.6025 76.6852 10.3077 72.5926 10.3077ZM73.3333 59.6374C73.3333 60.0423 73 60.3736 72.5926 60.3736H7.40741C7 60.3736 6.66667 60.0423 6.66667 59.6374V17.6703C6.66667 17.2654 7 16.9341 7.40741 16.9341H24.6944L26.2778 12.5349L28.3981 6.62638H51.5926L53.713 12.5349L55.2963 16.9341H72.5926C73 16.9341 73.3333 17.2654 73.3333 17.6703V59.6374ZM40 22.8242C31.8148 22.8242 25.1852 29.4137 25.1852 37.5495C25.1852 45.6852 31.8148 52.2747 40 52.2747C48.1852 52.2747 54.8148 45.6852 54.8148 37.5495C54.8148 29.4137 48.1852 22.8242 40 22.8242ZM40 46.3846C35.0926 46.3846 31.1111 42.4272 31.1111 37.5495C31.1111 32.6717 35.0926 28.7143 40 28.7143C44.9074 28.7143 48.8889 32.6717 48.8889 37.5495C48.8889 42.4272 44.9074 46.3846 40 46.3846Z" fill="white"/>
</svg>
